<?xml version="1.0" ?><svg height="36" id="svg4488" version="1.1" width="36" xmlns="http://www.w3.org/2000/svg" xmlns:cc="http://creativecommons.org/ns#" xmlns:dc="http://purl.org/dc/elements/1.1/" xmlns:inkscape="http://www.inkscape.org/namespaces/inkscape" xmlns:rdf="http://www.w3.org/1999/02/22-rdf-syntax-ns#" xmlns:sodipodi="http://sodipodi.sourceforge.net/DTD/sodipodi-0.dtd" xmlns:svg="http://www.w3.org/2000/svg"><defs id="defs4490"/><g id="layer1" transform="translate(0,-1016.3622)"><g id="g4241" transform="translate(642.40747,-158.60997)"><path d="m 467.45508,501.82227 1.88867,0 1.94141,1.86132 c 0.0118,0.0117 0.0242,0.0228 0.0371,0.0332 0.0262,0.0203 0.0543,0.038 0.084,0.0527 l 0.002,0 c 0.0294,0.0147 0.0601,0.0265 0.0918,0.0352 0.0161,0.005 0.0324,0.009 0.0488,0.0117 0.0271,0.004 0.0546,0.006 0.082,0.006 l 4.17578,0 4.17774,0 c 0.0939,6e-5 0.18599,-0.0263 0.26562,-0.0762 0.005,-0.003 0.0105,-0.006 0.0156,-0.01 l 0.002,-0.002 c 0.0135,-0.009 0.0265,-0.0189 0.0391,-0.0293 0.008,-0.007 0.0159,-0.0141 0.0234,-0.0215 l 1.9414,-1.86132 1.88868,0 c 0.11521,0 0.22595,0.0115 0.33398,0.0332 6.2e-4,1.2e-4 10e-4,-1.3e-4 0.002,0 0.10737,0.0217 0.21038,0.0547 0.3086,0.0957 5.7e-4,2.4e-4 0.001,-2.4e-4 0.002,0 0.19692,0.0825 0.37368,0.20157 0.52148,0.34961 0.22231,0.22266 0.38046,0.50972 0.44532,0.83399 0.0216,0.10808 0.0332,0.22071 0.0332,0.33593 l 0,12.35157 c 0,0.9583 -0.1112,1.64972 -0.28125,2.19335 -0.085,0.27182 -0.18462,0.50594 -0.29297,0.71876 -0.10856,0.2134 -0.22458,0.40388 -0.34375,0.58789 -0.11889,0.18355 -0.24559,0.36442 -0.36914,0.55273 -0.24743,0.377 -0.48101,0.78121 -0.60937,1.28516 -0.0641,0.25166 -0.10157,0.52761 -0.10157,0.83789 l 0,6.17578 c 0,0.34567 -0.10295,0.66302 -0.27929,0.92578 -3.2e-4,4.7e-4 3.1e-4,10e-4 0,0.002 -0.0586,0.0871 -0.12536,0.16833 -0.19922,0.24219 -0.20545,0.20545 -0.46795,0.35075 -0.76172,0.42383 -0.13121,0.0328 -0.2657,0.0547 -0.4082,0.0547 l -12.70508,0 c -0.11522,0 -0.22786,-0.0115 -0.33594,-0.0332 -0.32425,-0.065 -0.61131,-0.22265 -0.83398,-0.44531 -0.22268,-0.22266 -0.3803,-0.50972 -0.44532,-0.83398 -0.0217,-0.10809 -0.0332,-0.22072 -0.0332,-0.33594 l 0,-6.17578 c 0,-0.31028 -0.0375,-0.58623 -0.10156,-0.83789 -0.12805,-0.50273 -0.36261,-0.90698 -0.60938,-1.28321 -3e-4,-4.6e-4 3e-4,-10e-4 0,-0.002 -0.12355,-0.18831 -0.25025,-0.36918 -0.36914,-0.55273 -0.23778,-0.36715 -0.46813,-0.76301 -0.63867,-1.30665 -0.17053,-0.54363 -0.28125,-1.23505 -0.28125,-2.19335 l 0,-12.35157 c 0,-0.11522 0.0115,-0.22785 0.0332,-0.33593 0.0354,-0.17645 0.10363,-0.33818 0.18946,-0.48829 0.01,-0.0167 0.0172,-0.0344 0.0273,-0.0508 0.0864,-0.13933 0.1952,-0.26245 0.31836,-0.36914 0.0204,-0.0176 0.0412,-0.0342 0.0625,-0.0508 0.12686,-0.0991 0.26607,-0.18163 0.41992,-0.24023 0.0594,-0.0226 0.12094,-0.0408 0.1836,-0.0566 0.0326,-0.008 0.0643,-0.0191 0.0976,-0.0254 0.10224,-0.0193 0.20789,-0.0312 0.31641,-0.0312 z m 3.33203,0 10.03906,0 -1.04297,1 -3.97656,0 -3.97461,0 z m 9.01953,3 c -0.82251,0 -1.50001,0.6775 -1.5,1.5 -1e-5,0.8225 0.67749,1.5 1.5,1.5 0.8225,0 1.5,-0.6775 1.5,-1.5 0,-0.8225 -0.6775,-1.5 -1.5,-1.5 z m 0,1 c 0.28206,0 0.5,0.2179 0.5,0.5 0,0.282 -0.21794,0.5 -0.5,0.5 -0.28206,0 -0.50001,-0.218 -0.5,-0.5 -1e-5,-0.2821 0.21794,-0.5 0.5,-0.5 z m 3.5,1 c -0.82251,0 -1.50001,0.6775 -1.5,1.5 -1e-5,0.8225 0.67749,1.5 1.5,1.5 0.8225,0 1.5,-0.6775 1.5,-1.5 0,-0.8225 -0.6775,-1.5 -1.5,-1.5 z m -7.5,1 c -4.41236,0 -8.00001,3.5876 -8,8 -1e-5,4.4123 3.58764,8 8,8 4.41235,0 8,-3.5877 8,-8 0,-4.4124 -3.58765,-8 -8,-8 z m 7.5,0 c 0.28206,0 0.5,0.2179 0.5,0.5 0,0.282 -0.21794,0.5 -0.5,0.5 -0.28206,0 -0.50001,-0.218 -0.5,-0.5 -1e-5,-0.2821 0.21794,-0.5 0.5,-0.5 z m -7.5,1 c 0.91727,0 1.78972,0.18059 2.5918,0.5 l -5.18555,0 c 0.80217,-0.3195 1.67635,-0.5 2.59375,-0.5 z m -4.32422,1.5 0.32422,0 0,1 -1.36328,0 c 0.31001,-0.36922 0.65987,-0.70177 1.03906,-1 z m 1.32422,0 6,0 0,1 -6,0 z m 7,0 0.32422,0 c 0.37908,0.29817 0.72718,0.63088 1.03711,1 l -1.36133,0 z m -10.05859,2 2.05859,0 0,1 -2.5332,0 c 0.13287,-0.34779 0.29046,-0.68155 0.47461,-1 z m 3.05859,0 6,0 0,1 -6,0 z m 7,0 2.05859,0 c 0.18416,0.3185 0.34174,0.65215 0.47461,1 l -2.5332,0 z m -10.83594,2 2.83594,0 0,1 -2.97461,0 c 0.024,-0.34068 0.0678,-0.67465 0.13867,-1 z m 3.83594,0 6,0 0,1 -6,0 z m 7,0 2.83398,0 c 0.0709,0.32539 0.1166,0.65927 0.14063,1 l -2.97461,0 z m -10.97461,2 2.97461,0 0,1 -2.83594,0 c -0.0709,-0.32535 -0.11464,-0.65933 -0.13867,-1 z m 3.97461,0 6,0 0,1 -6,0 z m 7,0 2.97461,0 c -0.024,0.34071 -0.0697,0.67461 -0.14063,1 l -2.83398,0 z m -10.53516,2 2.53516,0 0,1 -2.05859,0 c -0.1842,-0.31867 -0.34371,-0.65198 -0.47657,-1 z m 3.53516,0 6,0 0,1 -6,0 z m 7,0 2.5332,0 c -0.13281,0.34785 -0.29051,0.68147 -0.47461,1 l -2.05859,0 z m -14,1.40039 c 0.0276,0.0444 0.0545,0.1001 0.082,0.14257 0.3933,0.60728 0.71239,0.97802 0.84766,1.51954 0.0451,0.1805 0.0703,0.3796 0.0703,0.61328 l 0,6.17578 c 0,0.16418 0.0172,0.32322 0.0469,0.47851 0.0179,0.097 0.0499,0.18817 0.0781,0.28125 0.0167,0.0533 0.0289,0.10834 0.0488,0.16016 0.042,0.11227 0.0942,0.21773 0.15039,0.32227 0.0118,0.0215 0.0228,0.0433 0.0352,0.0644 0.0668,0.11637 0.1415,0.22559 0.2246,0.33008 0.001,0.002 0.002,0.004 0.004,0.006 -0.89211,-0.0317 -1.58789,-0.74154 -1.58789,-1.64258 z m 20,0.002 0,8.44922 c 0,0.90091 -0.69407,1.61066 -1.58594,1.64258 10e-4,-0.002 0.002,-0.004 0.004,-0.006 0.0831,-0.10449 0.15779,-0.21371 0.22461,-0.33008 0.0123,-0.0211 0.0234,-0.043 0.0352,-0.0644 0.0559,-0.10387 0.10662,-0.20882 0.14843,-0.32032 0.0237,-0.0613 0.0395,-0.12601 0.0586,-0.18945 0.0236,-0.0812 0.0506,-0.16001 0.0664,-0.24414 0.031,-0.15852 0.0508,-0.32044 0.0508,-0.48828 l 0,-6.17578 c 0,-0.46735 0.0978,-0.79813 0.26172,-1.11328 0.16394,-0.31515 0.39405,-0.61469 0.65625,-1.01954 0.0271,-0.0418 0.0529,-0.0969 0.0801,-0.14062 z m -15.36328,0.59766 1.36328,0 0,1 -0.32812,0 c -0.37792,-0.29761 -0.72605,-0.63184 -1.03516,-1 z m 2.36328,0 6,0 0,1 -6,0 z m 7,0 1.36133,0 c -0.30937,0.36846 -0.65688,0.70221 -1.03516,1 l -0.32617,0 z m -6.59375,2 5.18555,0 c -0.80208,0.31941 -1.67453,0.5 -2.5918,0.5 -0.9174,0 -1.79158,-0.1805 -2.59375,-0.5 z m -4.40625,8.5 0.64844,0 2.35156,0 0,1 -3,0 z m 11,0 2.35352,0 0.64648,0 0,1 -3,0 z" id="rect4243" style="font-size:medium;font-style:normal;font-variant:normal;font-weight:normal;font-stretch:normal;text-indent:0;text-align:start;text-decoration:none;line-height:normal;letter-spacing:normal;word-spacing:normal;text-transform:none;direction:ltr;block-progression:tb;writing-mode:lr-tb;text-anchor:start;baseline-shift:baseline;color:#000000;fill:#000000;fill-opacity:1;fill-rule:nonzero;stroke:none;visibility:visible;display:inline;overflow:visible;enable-background:accumulate;font-family:sans-serif" transform="translate(-1100.2142,676.14997)"/></g></g></svg>