<?xml version="1.0" ?><!DOCTYPE svg  PUBLIC '-//W3C//DTD SVG 1.1//EN'  'http://www.w3.org/Graphics/SVG/1.1/DTD/svg11.dtd'><svg enable-background="new 0 0 50 50" height="50px" id="Layer_1" version="1.1" viewBox="0 0 50 50" width="50px" xml:space="preserve" xmlns="http://www.w3.org/2000/svg" xmlns:xlink="http://www.w3.org/1999/xlink"><rect fill="none" height="50" width="50"/><path d="M42,10V6.846  C42,5.827,41.181,5,40.167,5h-5.334C33.819,5,33,5.827,33,6.846V10" fill="none" stroke="#000000" stroke-linejoin="round" stroke-miterlimit="10" stroke-width="2"/><path d="M17,10V6.846  C17,5.827,16.181,5,15.167,5H9.833C8.819,5,8,5.827,8,6.846V10" fill="none" stroke="#000000" stroke-linejoin="round" stroke-miterlimit="10" stroke-width="2"/><path d="  M45.308,12H4.692C2.653,12,1,13.642,1,15.667v25.667C1,43.358,2.653,45,4.692,45h40.615C47.347,45,49,43.358,49,41.334V15.667  C49,13.642,47.347,12,45.308,12z" fill="none" stroke="#000000" stroke-linecap="round" stroke-linejoin="round" stroke-miterlimit="10" stroke-width="2.1037"/><rect height="3" width="11" x="7" y="27"/><rect height="3" width="11" x="32" y="27"/><rect height="11" width="3" x="36" y="23"/></svg>