<?xml version="1.0" ?><!DOCTYPE svg  PUBLIC '-//W3C//DTD SVG 1.1//EN'  'http://www.w3.org/Graphics/SVG/1.1/DTD/svg11.dtd'><svg enable-background="new 0 0 128 128" height="128px" id="Layer_1" version="1.1" viewBox="0 0 128 128" width="128px" xml:space="preserve" xmlns="http://www.w3.org/2000/svg" xmlns:xlink="http://www.w3.org/1999/xlink"><g><g><path d="M35.808,74.802c-4.425,13.631-8.85,27.262-13.274,40.894c-0.304,0.935,0.505,1.898,1.446,1.898c14.41,0,28.821,0,43.231,0    c1.054,0,1.602-0.952,1.446-1.898c-1.523-9.318-3.048-18.637-4.571-27.955c-0.075-0.459-0.587-0.976-1.048-1.048    c-4.758-0.75-9.449-1.844-13.782-4.002c-4.193-2.088-7.701-5.218-10.941-8.551c-1.351-1.39-3.47,0.734-2.121,2.121    c3.289,3.384,6.842,6.462,10.999,8.733c4.643,2.537,9.863,3.773,15.049,4.591c-0.35-0.349-0.699-0.698-1.048-1.048    c1.523,9.318,3.048,18.637,4.571,27.955c0.482-0.633,0.964-1.266,1.446-1.898c-14.41,0-28.821,0-43.231,0    c0.482,0.633,0.964,1.266,1.446,1.898c4.425-13.631,8.85-27.262,13.274-40.894C39.3,73.754,36.402,72.97,35.808,74.802z"/></g></g><g><g><path d="M40.976,33.95c-13.053,11.959-13.816,32.033-1.802,44.996c12.117,13.074,33.119,13.242,46.256,1.752    c0.628-0.549,0.534-1.559,0-2.121C71.318,63.701,57.208,48.826,43.097,33.95c-1.334-1.406-3.451,0.719-2.121,2.121    c14.111,14.876,28.222,29.751,42.333,44.627c0-0.707,0-1.414,0-2.121c-12.162,10.638-30.78,9.821-42.014-1.752    c-11.224-11.563-9.813-30.111,1.802-40.754C44.526,34.762,42.398,32.646,40.976,33.95z"/></g></g><g><g><path d="M75.986,40.197c-8.318,1.057-16.629,2.169-24.938,3.287c-1.184,0.159-1.352,1.78-0.662,2.507    c6.767,7.134,13.533,14.268,20.3,21.401c0.841,0.887,2.121,0.339,2.507-0.662c2.6-6.745,5.2-13.49,7.8-20.236    c0.218-0.565-0.124-1.449-0.689-1.693c-1.624-0.703-2.537-1.737-2.87-3.502c-0.357-1.9-3.249-1.093-2.893,0.797    c0.459,2.439,1.972,4.31,4.249,5.295c-0.23-0.564-0.46-1.129-0.689-1.693c-2.6,6.745-5.2,13.49-7.8,20.236    c0.836-0.221,1.671-0.441,2.507-0.662c-6.767-7.134-13.533-14.268-20.3-21.401c-0.221,0.836-0.441,1.671-0.662,2.507    c7.648-1.028,16.178-2.168,24.142-3.18C77.879,42.957,77.902,39.954,75.986,40.197z"/></g></g><g><g><path d="M85.29,41.058c-0.279,5.032-7.804,5.032-8.083,0C76.929,36.029,85.013,36.048,85.29,41.058c0.106,1.924,3.107,1.934,3,0    c-0.219-3.954-3.122-6.678-7.041-6.883c-3.91-0.204-6.84,3.235-7.042,6.883c-0.219,3.945,3.454,6.696,7.042,6.884    c3.91,0.204,6.839-3.237,7.041-6.884C88.397,39.124,85.396,39.134,85.29,41.058z"/></g></g><g><g><path d="M46.696,114.786c0-7.832,0-15.663,0-23.495c0-1.935-3-1.935-3,0c0,7.832,0,15.663,0,23.495    C43.696,116.721,46.696,116.721,46.696,114.786L46.696,114.786z"/></g></g><g><g><path d="M83.854,18.527c11.873,0.525,21.009,10.338,20.841,22.185c-0.027,1.936,2.973,1.933,3,0    c0.192-13.523-10.365-24.589-23.841-25.185C81.919,15.441,81.927,18.442,83.854,18.527L83.854,18.527z"/></g></g><g><g><path d="M81.375,26.47c8.239,0.412,14.445,7.119,14.376,15.331c-0.017,1.936,2.983,1.934,3,0    c0.083-9.896-7.529-17.839-17.376-18.331C79.44,23.373,79.45,26.373,81.375,26.47L81.375,26.47z"/></g></g></svg>