<?xml version="1.0" ?><svg data-name="Layer 1" id="Layer_1" viewBox="0 0 32 32" xmlns="http://www.w3.org/2000/svg"><defs><style>.cls-1{fill:#231f20;}</style></defs><title/><path class="cls-1" d="M26,11.5A10.5,10.5,0,1,0,14,21.88V28a8.52,8.52,0,0,0-4.83,1.86L9,30v1H22V30l-0.17-.15A8.77,8.77,0,0,0,17,28V21.88A10.51,10.51,0,0,0,26,11.5Zm-20,0A9.5,9.5,0,1,1,15.5,21,9.51,9.51,0,0,1,6,11.5ZM10.75,30a7.66,7.66,0,0,1,3.75-1h2a7.75,7.75,0,0,1,3.72,1H10.75ZM16,28H15V22l0.5,0L16,22v6Z"/><path class="cls-1" d="M15.5,14a2.48,2.48,0,0,0,.56-0.07l0,0.1a4.77,4.77,0,0,0,2.24,3.65,2.43,2.43,0,0,0,1.22.32,3.1,3.1,0,0,0,1.24-.27,4.76,4.76,0,0,0,2.13-2c1.12-1.94.86-4.12-.6-5A4.77,4.77,0,0,0,18,10.63l-0.19.06a2.49,2.49,0,0,0-.49-0.84l0.1-.09A4.77,4.77,0,0,0,19.5,6c0-1.68-1.76-3-4-3s-4,1.32-4,3a4.77,4.77,0,0,0,2,3.76l0.1,0.09a2.49,2.49,0,0,0-.5.87l-0.06,0a4.77,4.77,0,0,0-4.28.12c-1.46.84-1.72,3-.6,5a4.76,4.76,0,0,0,2.13,2,3.1,3.1,0,0,0,1.24.27,2.43,2.43,0,0,0,1.22-.32A4.77,4.77,0,0,0,15,14.1l0-.15A2.48,2.48,0,0,0,15.5,14ZM14,11.5A1.5,1.5,0,1,1,15.5,13,1.5,1.5,0,0,1,14,11.5Zm4.36,0.08a3.84,3.84,0,0,1,3.46,0c1,0.55,1.06,2.17.23,3.6a3.76,3.76,0,0,1-1.67,1.59,1.71,1.71,0,0,1-1.56,0,3.84,3.84,0,0,1-1.76-3L17,13.49a2.49,2.49,0,0,0,1-1.79ZM12.5,6c0-1.1,1.35-2,3-2s3,0.9,3,2a3.84,3.84,0,0,1-1.7,3l-0.24.22a2.42,2.42,0,0,0-2.1,0L14.2,9A3.84,3.84,0,0,1,12.5,6Zm1.56,7.9a3.84,3.84,0,0,1-1.76,3,1.71,1.71,0,0,1-1.56,0,3.76,3.76,0,0,1-1.67-1.59c-0.83-1.43-.72-3,0.23-3.6a3.84,3.84,0,0,1,3.46,0L13,11.74a2.49,2.49,0,0,0,1.1,1.85Z"/></svg>