<?xml version="1.0" ?><svg data-name="Layer 1" id="Layer_1" viewBox="0 0 32 32" xmlns="http://www.w3.org/2000/svg"><title/><path d="M29.5,4H2.5A2.5,2.5,0,0,0,0,6.5v20A2.5,2.5,0,0,0,2.5,29h27A2.5,2.5,0,0,0,32,26.5V6.5A2.5,2.5,0,0,0,29.5,4ZM28,8V25H9V8H28ZM8,25H1V8H8V25Zm23,1.5A1.5,1.5,0,0,1,29.5,28H2.5A1.5,1.5,0,0,1,1,26.5V26H29V7H1V6.5A1.5,1.5,0,0,1,2.5,5h27A1.5,1.5,0,0,1,31,6.5v20Z"/><path d="M4.5,18A1.5,1.5,0,1,0,3,16.5,1.5,1.5,0,0,0,4.5,18Zm0-2a0.5,0.5,0,1,1-.5.5A0.5,0.5,0,0,1,4.5,16Z"/><rect height="1" width="3" x="3" y="12"/><rect height="1" width="3" x="3" y="10"/><rect height="1" width="3" x="3" y="20"/><rect height="1" width="3" x="3" y="22"/></svg>