<?xml version="1.0" ?><svg data-name="Layer 1" id="Layer_1" viewBox="0 0 32 32" xmlns="http://www.w3.org/2000/svg"><title/><path d="M23,5H21V3H8V3.5A3.67,3.67,0,0,0,9,5.7a32.33,32.33,0,0,0,3.05,14L12.19,20h5.62l0.14-.28A28.08,28.08,0,0,0,20,14h2c1.21,0,1.68-1.13,2-1.81A13.22,13.22,0,0,0,25,7,2,2,0,0,0,23,5ZM17.19,19H12.81A31.7,31.7,0,0,1,10,5.5V5.29L9.85,5.15A3.68,3.68,0,0,1,9.1,4H20V5.5A31.7,31.7,0,0,1,17.19,19ZM23,11.81c-0.34.81-.58,1.19-1,1.19H20.22A35.73,35.73,0,0,0,21,6h2a1,1,0,0,1,1,1A12.08,12.08,0,0,1,23,11.81Z"/><path d="M20,22.92A2.07,2.07,0,0,0,18,21H12a2.07,2.07,0,0,0-2,1.92c-0.22,1.44-1,5.44-1,5.48L8.89,29H21.11L21,28.41S20.21,24.36,20,22.92ZM10.1,28c0.22-1.18.72-3.79,0.89-4.92A1.12,1.12,0,0,1,12,22h6a1.12,1.12,0,0,1,1,1.08c0.17,1.13.66,3.74,0.89,4.92H10.1Z"/><path d="M15,23a2,2,0,1,0,2,2A2,2,0,0,0,15,23Zm0,3a1,1,0,1,1,1-1A1,1,0,0,1,15,26Z"/><rect height="1" width="2" x="14" y="12"/><rect height="1" width="2" x="14" y="15"/><rect height="1" width="2" x="14" y="9"/><rect height="1" width="2" x="14" y="6"/></svg>